HIERARCHY
ROOT Hips
{
  OFFSET 54.8606 84.4565 3.96137
  CHANNELS 6 Xposition Yposition Zposition Zrotation Xrotation Yrotation
  JOINT spine
  {
    OFFSET 0 5.95438 0.342407
    CHANNELS 3 Zrotation Xrotation Yrotation
    JOINT spine1
    {
      OFFSET 0 8.85602 0
      CHANNELS 3 Zrotation Xrotation Yrotation
      JOINT spine2
      {
        OFFSET 0 8.48567 0
        CHANNELS 3 Zrotation Xrotation Yrotation
        JOINT Neck
        {
          OFFSET 0 21.7863 1.0387
          CHANNELS 3 Zrotation Xrotation Yrotation
          JOINT Head
          {
            OFFSET 0 6.5822 0
            CHANNELS 3 Zrotation Xrotation Yrotation
            End Site
            {
              OFFSET 0 15.9326 -5.25436
            }
          }
        }
        JOINT RightShoulder
        {
          OFFSET -3.57307 9.16386 -0.497525
          CHANNELS 3 Zrotation Xrotation Yrotation
          JOINT RightArm
          {
            OFFSET 0 12.0192 0
            CHANNELS 3 Zrotation Xrotation Yrotation
            JOINT RightArmRoll
            {
              OFFSET 0 6.06755 0
              CHANNELS 3 Zrotation Xrotation Yrotation
              JOINT RightForeArm
              {
                OFFSET 0 17.6726 0
                CHANNELS 3 Zrotation Xrotation Yrotation
                JOINT RightForeArmRoll
                {
                  OFFSET 0 6.80872 0
                  CHANNELS 3 Zrotation Xrotation Yrotation
                  JOINT RightHand
                  {
                    OFFSET 0 13.6636 0
                    CHANNELS 3 Zrotation Xrotation Yrotation
                    End Site
                    {
                      OFFSET 0 0 0
                    }
                  }
                }
              }
            }
          }
        }
        JOINT LeftShoulder
        {
          OFFSET 3.57307 9.16386 -0.497525
          CHANNELS 3 Zrotation Xrotation Yrotation
          JOINT LeftArm
          {
            OFFSET 0 12.0192 0
            CHANNELS 3 Zrotation Xrotation Yrotation
            JOINT LeftArmRoll
            {
              OFFSET 0 6.06755 0
              CHANNELS 3 Zrotation Xrotation Yrotation
              JOINT LeftForeArm
              {
                OFFSET 0 17.6726 0
                CHANNELS 3 Zrotation Xrotation Yrotation
                JOINT LeftForeArmRoll
                {
                  OFFSET 0 6.80872 0
                  CHANNELS 3 Zrotation Xrotation Yrotation
                  JOINT LeftHand
                  {
                    OFFSET 0 13.6636 0
                    CHANNELS 3 Zrotation Xrotation Yrotation
                    End Site
                    {
                      OFFSET 0 0 0
                    }
                  }
                }
              }
            }
          }
        }
      }
    }
  }
  JOINT RightUpLeg
  {
    OFFSET -5.27774 -0.967797 -0.811858
    CHANNELS 3 Zrotation Xrotation Yrotation
    JOINT RightUpLegRoll
    {
      OFFSET 0 16.0214 0
      CHANNELS 3 Zrotation Xrotation Yrotation
      JOINT RightLeg
      {
        OFFSET 0 -19.8401 0
        CHANNELS 3 Zrotation Xrotation Yrotation
        JOINT RightLegRoll
        {
          OFFSET 0 19.905 0
          CHANNELS 3 Zrotation Xrotation Yrotation
          JOINT RightFoot
          {
            OFFSET 0 16.5675 0
            CHANNELS 3 Zrotation Xrotation Yrotation
            JOINT RightToeBase
            {
              OFFSET 0 13.8496 0
              CHANNELS 3 Zrotation Xrotation Yrotation
              End Site
              {
                OFFSET 0.00587034 6.70728 -0.773117
              }
            }
          }
        }
      }
    }
  }
  JOINT LeftUpLeg
  {
    OFFSET 5.27774 -0.967797 -0.811858
    CHANNELS 3 Zrotation Xrotation Yrotation
    JOINT LeftUpLegRoll
    {
      OFFSET 0 16.0215 0
      CHANNELS 3 Zrotation Xrotation Yrotation
      JOINT LeftLeg
      {
        OFFSET 0 19.84 0
        CHANNELS 3 Zrotation Xrotation Yrotation
        JOINT LeftLegRoll
        {
          OFFSET 0 20.089 0
          CHANNELS 3 Zrotation Xrotation Yrotation
          JOINT LeftFoot
          {
            OFFSET 0 16.3835 0
            CHANNELS 3 Zrotation Xrotation Yrotation
            JOINT LeftToeBase
            {
              OFFSET 0 13.8496 0
              CHANNELS 3 Zrotation Xrotation Yrotation
              End Site
              {
                OFFSET -0.0263083 6.70728 -0.773117
              }
            }
          }
        }
      }
    }
  }
}
MOTION
Frames: 12
Frame Time: 0.00208333
55.2307 84.3338 3.07477 2.49033 -9.63949 2.25925 -0.0433256 -0.101585 0.04207 -0.0743797 3.79863 0.0985898 -0.0757084 5.44371 0.100963 -8.2784 16.106 0.86542 9.32489 2.73495 -1.60666 72.5343 0.384378 -1.34651 106.515 17.8127 -7.59348 2.32909e-005 -3.28125e-006 6.05043e-006 -3.64447 -0.0276624 -1.99256 4.36715e-006 3.72216e-006 -3.01161 8.03007 -4.9514 0.697626 -74.8505 -2.91426 3.07641 -108.103 19.3505 8.65647 7.95139e-016 3.18055e-015 7.95139e-016 3.63917 -0.0276055 1.99242 3.51365e-006 1.12833e-006 3.0116 -8.03009 -4.95139 -0.697628 175.52 -2.73478 5.51318 180 7.01526e-015 178.837 176.98 11.2538 179.942 2.31005e-006 1.7212e-006 0.187095 -20.1022 69.6546 21.0174 8.13649 25.2327 -3.48773 179.282 -4.12996 0.203651 4.54188e-006 -4.6773e-006 -1.16916 -2.59704 -8.72765 0.0272135 3.87951e-006 -1.63168e-006 -0.122738 19.3508 68.8479 -20.2908 -8.13649 25.2327 3.48774 
55.2387 84.3304 3.07766 2.49259 -9.64104 2.26926 -0.0434225 -0.102806 0.0420689 -0.0754984 3.79626 0.0986603 -0.0768292 5.44133 0.101065 -8.2882 16.1144 0.862104 9.34477 2.73195 -1.61324 72.5417 0.384231 -1.34744 106.478 17.8112 -7.55921 2.32909e-005 -3.28125e-006 6.05043e-006 -3.64447 -0.0276624 -1.99256 4.36715e-006 3.72216e-006 -3.01161 8.03007 -4.9514 0.697626 -74.8638 -2.91378 3.07723 -108.07 19.3511 8.62688 -6.4605e-015 3.18055e-015 -1.19271e-015 3.63917 -0.0276055 1.99242 3.51365e-006 1.12833e-006 3.0116 -8.03009 -4.95139 -0.697628 175.533 -2.75271 5.49592 180 7.01526e-015 178.837 177.002 11.2265 179.94 2.31005e-006 1.7212e-006 0.187325 -20.1055 69.6581 21.0208 8.13649 25.2327 -3.48773 179.281 -4.13981 0.20252 4.54188e-006 -4.6773e-006 -1.16916 -2.5989 -8.70793 0.0268384 3.87951e-006 -1.63168e-006 -0.122111 19.3409 68.837 -20.2802 -8.13649 25.2327 3.48774 
55.2389 84.3323 3.07822 2.49468 -9.64245 2.27944 -0.0435008 -0.104034 0.0420678 -0.0766134 3.79387 0.0987306 -0.0779463 5.43895 0.101168 -8.29749 16.1226 0.858412 9.36463 2.72919 -1.62003 72.5497 0.383659 -1.34863 106.442 17.8099 -7.52533 2.32909e-005 -3.28125e-006 6.05043e-006 -3.64447 -0.0276624 -1.99256 4.36715e-006 3.72216e-006 -3.01161 8.03007 -4.9514 0.697626 -74.8767 -2.91379 3.07825 -108.038 19.3519 8.59813 -2.5345e-014 -3.18055e-015 -7.95139e-015 3.63917 -0.0276055 1.99242 3.51365e-006 1.12833e-006 3.0116 -8.03009 -4.95139 -0.697628 175.546 -2.76953 5.47752 180 7.01526e-015 178.837 177.026 11.2018 179.938 2.31005e-006 1.7212e-006 0.187668 -20.1102 69.6632 21.0257 8.13649 25.2327 -3.48773 179.281 -4.1496 0.201526 4.54188e-006 -4.6773e-006 -1.16916 -2.60051 -8.68779 0.0264871 3.87951e-006 -1.63168e-006 -0.12146 19.3308 68.8259 -20.2695 -8.13649 25.2327 3.48774 
55.234 84.3321 3.08028 2.49665 -9.64377 2.28974 -0.0435661 -0.105265 0.0420668 -0.0777259 3.79149 0.0988008 -0.0790607 5.43656 0.10127 -8.30641 16.1308 0.854456 9.38448 2.72661 -1.62699 72.5581 0.38279 -1.35001 106.406 17.8086 -7.49172 2.32909e-005 -3.28125e-006 6.05043e-006 -3.64447 -0.0276624 -1.99256 4.36715e-006 3.72216e-006 -3.01161 8.03007 -4.9514 0.697626 -74.8894 -2.91416 3.0794 -108.007 19.353 8.56997 -3.8763e-015 0 -7.95139e-016 3.63917 -0.0276055 1.99242 3.51365e-006 1.12833e-006 3.0116 -8.03009 -4.95139 -0.697628 175.56 -2.78556 5.45833 180 7.01526e-015 178.837 177.05 11.1788 179.935 2.31005e-006 1.7212e-006 0.188089 -20.1159 69.6692 21.0315 8.13649 25.2327 -3.48773 179.281 -4.15935 0.200627 4.54188e-006 -4.6773e-006 -1.16916 -2.60195 -8.66735 0.0261525 3.87951e-006 -1.63168e-006 -0.120793 19.3207 68.8147 -20.2585 -8.13649 25.2327 3.48774 
55.2395 84.3215 3.0767 2.49855 -9.64503 2.30012 -0.043624 -0.106499 0.0420658 -0.0788368 3.78909 0.0988709 -0.0801736 5.43417 0.101372 -8.31513 16.1389 0.85035 9.40432 2.72412 -1.63402 72.5667 0.38175 -1.35149 106.37 17.8073 -7.45826 2.32909e-005 -3.28125e-006 6.05043e-006 -3.64447 -0.0276624 -1.99256 4.36715e-006 3.72216e-006 -3.01161 8.03007 -4.9514 0.697626 -74.902 -2.91474 3.08064 -107.976 19.3542 8.54214 -1.25234e-014 3.18055e-015 -3.57812e-015 3.63917 -0.0276055 1.99242 3.51365e-006 1.12833e-006 3.0116 -8.03009 -4.95139 -0.697628 175.575 -2.80115 5.43868 180 7.01526e-015 178.837 177.075 11.1567 179.933 2.31005e-006 1.7212e-006 0.188556 -20.1221 69.6759 21.0379 8.13649 25.2327 -3.48773 179.281 -4.16907 0.199784 4.54188e-006 -4.6773e-006 -1.16916 -2.6033 -8.64673 0.0258275 3.87951e-006 -1.63168e-006 -0.120117 19.3104 68.8034 -20.2476 -8.13649 25.2327 3.48774 
55.2374 84.3262 3.07852 2.50044 -9.64628 2.3105 -0.04368 -0.107733 0.0420647 -0.0799474 3.7867 0.0989409 -0.0812861 5.43178 0.101474 -8.32379 16.147 0.846206 9.42416 2.72165 -1.64108 72.5754 0.380668 -1.353 106.334 17.806 -7.42484 2.32909e-005 -3.28125e-006 6.05043e-006 -3.64447 -0.0276624 -1.99256 4.36715e-006 3.72216e-006 -3.01161 8.03007 -4.9514 0.697626 -74.9146 -2.91536 3.08189 -107.945 19.3553 8.5144 -1.38155e-014 0 -3.57812e-015 3.63917 -0.0276055 1.99242 3.51365e-006 1.12833e-006 3.0116 -8.03009 -4.95139 -0.697628 175.589 -2.81663 5.41891 180 7.01527e-015 178.838 177.101 11.135 179.93 2.31005e-006 1.7212e-006 0.189033 -20.1285 69.6827 21.0445 8.13649 25.2327 -3.48773 179.281 -4.1788 0.198953 4.54188e-006 -4.6773e-006 -1.16916 -2.60461 -8.62607 0.0255049 3.87951e-006 -1.63168e-006 -0.119439 19.3002 68.7921 -20.2366 -8.13649 25.2327 3.48774 
55.2391 84.3348 3.08 2.50236 -9.64755 2.32086 -0.0437397 -0.108966 0.0420637 -0.0810587 3.78431 0.0990111 -0.0823994 5.42939 0.101576 -8.33255 16.1552 0.842137 9.44401 2.71913 -1.6481 72.584 0.379671 -1.35446 106.298 17.8047 -7.39135 2.32909e-005 -3.28125e-006 6.05043e-006 -3.64447 -0.0276624 -1.99256 4.36715e-006 3.72216e-006 -3.01161 8.03007 -4.9514 0.697626 -74.9272 -2.91588 3.08311 -107.914 19.3565 8.48648 -2.31584e-014 1.27222e-014 -6.75868e-015 3.63917 -0.0276055 1.99242 3.51365e-006 1.12833e-006 3.0116 -8.03009 -4.95139 -0.697628 175.603 -2.83233 5.39938 180 7.01527e-015 178.838 177.126 11.1127 179.928 2.31005e-006 1.7212e-006 0.189488 -20.1346 69.6893 21.0508 8.13649 25.2327 -3.48773 179.281 -4.18853 0.198096 4.54188e-006 -4.6773e-006 -1.16916 -2.60598 -8.6055 0.0251776 3.87951e-006 -1.63168e-006 -0.118765 19.29 68.7808 -20.2257 -8.13649 25.2327 3.48774 
55.2353 84.3283 3.07659 2.50436 -9.64889 2.33113 -0.0438088 -0.110197 0.0420627 -0.0821718 3.78192 0.0990813 -0.0835145 5.427 0.101678 -8.34158 16.1634 0.838255 9.46386 2.7165 -1.65501 72.5923 0.378887 -1.35579 106.262 17.8033 -7.35766 2.32909e-005 -3.28125e-006 6.05043e-006 -3.64447 -0.0276624 -1.99256 4.36715e-006 3.72216e-006 -3.01161 8.03007 -4.9514 0.697626 -74.94 -2.91615 3.08423 -107.883 19.3574 8.45815 -2.08724e-015 -3.18055e-015 -1.98785e-016 3.63917 -0.0276055 1.99242 3.51365e-006 1.12833e-006 3.0116 -8.03009 -4.95139 -0.697628 175.617 -2.84859 5.38041 180 7.01527e-015 178.838 177.15 11.0892 179.926 2.31005e-006 1.7212e-006 0.189887 -20.14 69.6951 21.0563 8.13649 25.2327 -3.48773 179.281 -4.19829 0.19717 4.54188e-006 -4.6773e-006 -1.16916 -2.60747 -8.58514 0.0248384 3.87951e-006 -1.63168e-006 -0.118103 19.2799 68.7696 -20.2149 -8.13649 25.2327 3.48774 
55.2358 84.332 3.0778 2.50651 -9.65035 2.34126 -0.0438926 -0.111422 0.0420616 -0.0832879 3.77954 0.0991516 -0.0846327 5.42462 0.10178 -8.35101 16.1716 0.834674 9.48372 2.71367 -1.66174 72.6001 0.378442 -1.3569 106.226 17.8019 -7.32366 2.32909e-005 -3.28125e-006 6.05043e-006 -3.64447 -0.0276624 -1.99256 4.36715e-006 3.72216e-006 -3.01161 8.03007 -4.9514 0.697626 -74.953 -2.91602 3.08519 -107.85 19.3582 8.42915 -6.65929e-015 0 -1.78906e-015 3.63917 -0.0276055 1.99242 3.51365e-006 1.12833e-006 3.0116 -8.03009 -4.95139 -0.697628 175.631 -2.86575 5.36235 180 7.01527e-015 178.838 177.173 11.0637 179.923 2.31005e-006 1.7212e-006 0.190196 -20.1442 69.6996 21.0608 8.13649 25.2327 -3.48773 179.281 -4.2081 0.196135 4.54188e-006 -4.6773e-006 -1.16916 -2.60915 -8.56513 0.0244802 3.87951e-006 -1.63168e-006 -0.117459 19.27 68.7586 -20.2042 -8.13649 25.2327 3.48774 
55.2562 84.3693 3.08696 2.50884 -9.65195 2.3512 -0.0439969 -0.112642 0.0420605 -0.0844081 3.77717 0.0992222 -0.085755 5.42225 0.101883 -8.36102 16.18 0.831505 9.50359 2.71057 -1.66823 72.6073 0.378465 -1.35772 106.189 17.8004 -7.28924 2.32909e-005 -3.28125e-006 6.05043e-006 -3.64447 -0.0276624 -1.99256 4.36715e-006 3.72216e-006 -3.01161 8.03007 -4.9514 0.697626 -74.9664 -2.91533 3.08593 -107.817 19.3587 8.39923 -2.64384e-014 3.18055e-015 -7.7526e-015 3.63917 -0.0276055 1.99242 3.51365e-006 1.12833e-006 3.0116 -8.03009 -4.95139 -0.697628 175.643 -2.88413 5.34554 180 7.01527e-015 178.838 177.194 11.0355 179.921 2.31005e-006 1.7212e-006 0.190381 -20.147 69.7026 21.0636 8.13649 25.2327 -3.48773 179.281 -4.21797 0.194949 4.54188e-006 -4.6773e-006 -1.16916 -2.61111 -8.54559 0.0240959 3.87951e-006 -1.63168e-006 -0.11684 19.2603 68.7478 -20.1938 -8.13649 25.2327 3.48774 
55.2552 84.3627 3.08537 2.51141 -9.65375 2.3609 -0.0441271 -0.113853 0.0420593 -0.0855334 3.77482 0.0992931 -0.0868825 5.41989 0.101986 -8.37175 16.1886 0.828863 9.52349 2.70714 -1.67442 72.6136 0.379083 -1.35817 106.151 17.7987 -7.25428 2.32909e-005 -3.28125e-006 6.05043e-006 -3.64447 -0.0276624 -1.99256 4.36715e-006 3.72216e-006 -3.01161 8.03007 -4.9514 0.697626 -74.9802 -2.91394 3.0864 -107.783 19.3588 8.36813 1.49089e-015 3.18055e-015 5.96354e-016 3.63917 -0.0276055 1.99242 3.51365e-006 1.12833e-006 3.0116 -8.03009 -4.95139 -0.697628 175.655 -2.90408 5.33032 180 7.01527e-015 178.838 177.213 11.0037 179.92 2.31005e-006 1.7212e-006 0.190409 -20.1478 69.7034 21.0644 8.13649 25.2327 -3.48773 179.281 -4.22792 0.193573 4.54188e-006 -4.6773e-006 -1.16916 -2.6134 -8.52665 0.0236783 3.87951e-006 -1.63168e-006 -0.116255 19.2509 68.7373 -20.1837 -8.13649 25.2327 3.48774 
55.2487 84.3673 3.0773 2.51427 -9.65578 2.37031 -0.0442888 -0.115054 0.042058 -0.086665 3.77247 0.0993643 -0.0880165 5.41755 0.10209 -8.38336 16.1973 0.826859 9.54341 2.70329 -1.68023 72.6191 0.380423 -1.35817 106.113 17.7969 -7.21866 2.32909e-005 -3.28125e-006 6.05043e-006 -3.64447 -0.0276624 -1.99256 4.36715e-006 3.72216e-006 -3.01161 8.03007 -4.9514 0.697626 -74.9946 -2.9117 3.08653 -107.748 19.3584 8.33562 -1.09332e-014 3.18055e-015 -3.18055e-015 3.63917 -0.0276055 1.99242 3.51365e-006 1.12833e-006 3.0116 -8.03009 -4.95139 -0.697628 175.665 -2.92592 5.31704 180 7.01527e-015 178.838 177.23 10.9678 179.918 2.31005e-006 1.7212e-006 0.190246 -20.1462 69.7016 21.0628 8.13649 25.2327 -3.48773 179.28 -4.23796 0.191964 4.54188e-006 -4.6773e-006 -1.16916 -2.61611 -8.50845 0.0232204 3.87951e-006 -1.63168e-006 -0.115708 19.2418 68.7271 -20.1739 -8.13649 25.2327 3.48774 
